<?xml version="1.0" standalone="no"?>
<!DOCTYPE svg PUBLIC "-//W3C//DTD SVG 20010904//EN"
 "http://www.w3.org/TR/2001/REC-SVG-20010904/DTD/svg10.dtd">
<svg version="1.0" xmlns="http://www.w3.org/2000/svg"
 width="1024.000000pt" height="1024.000000pt" viewBox="0 0 1024.000000 1024.000000"
 preserveAspectRatio="xMidYMid meet">
<metadata>
Created by potrace 1.14, written by Peter Selinger 2001-2017
</metadata>
<g transform="translate(0.000000,1024.000000) scale(0.100000,-0.100000)"
fill="#000000" stroke="none">
<path d="M7265 8726 c-66 -23 -133 -49 -149 -58 -18 -9 -53 -55 -96 -124 -37
-60 -73 -108 -79 -106 -7 1 -50 13 -95 27 -99 28 -284 55 -381 55 -122 0 -226
-35 -473 -159 -381 -191 -639 -385 -1006 -757 l-199 -202 -26 51 c-21 41 -36
57 -75 76 -77 39 -245 41 -527 5 l-46 -6 -27 47 c-59 99 -199 159 -376 159
-91 0 -119 -4 -205 -32 -55 -17 -129 -46 -165 -65 l-65 -33 3 -44 c2 -25 12
-88 23 -139 10 -52 17 -96 16 -98 -2 -1 -23 5 -47 15 -37 13 -79 16 -225 15
-155 -1 -193 -4 -275 -25 l-95 -24 -3 -47 c-2 -26 -6 -47 -10 -47 -4 0 -20 16
-35 35 -39 50 -119 100 -202 127 -58 19 -91 23 -198 23 l-127 0 7 50 c14 112
14 112 -140 140 -129 24 -130 23 -165 -110 -20 -74 -122 -558 -122 -577 0 -4
-4 -8 -9 -8 -5 0 -25 62 -46 138 -115 424 -142 502 -171 502 -17 0 -164 -79
-203 -109 l-25 -19 23 -98 c55 -240 327 -975 366 -991 16 -6 164 22 175 33 5
5 18 62 29 126 24 132 80 357 108 433 l19 50 59 0 60 0 -4 -230 c-4 -259 7
-636 20 -656 6 -11 17 -10 61 3 29 9 76 19 103 23 73 9 112 24 117 43 3 9 -4
71 -13 137 -21 135 -25 247 -8 205 9 -21 33 -116 82 -315 l12 -50 85 0 c126 1
308 13 365 24 28 5 73 10 102 10 83 1 83 1 83 234 1 238 -1 238 85 -20 31 -95
64 -182 73 -193 16 -19 22 -19 152 -7 116 10 135 14 138 30 4 18 -61 141 -223
422 -65 112 -95 171 -95 185 0 6 8 13 18 17 59 21 173 78 204 103 20 17 39 30
41 30 2 0 3 -117 3 -259 -1 -171 3 -264 10 -271 14 -14 240 2 256 18 9 9 8 60
-5 209 -9 108 -15 198 -13 200 2 3 25 -26 50 -64 177 -258 192 -278 215 -281
31 -5 188 56 196 76 10 27 -152 310 -281 489 -15 21 -14 23 27 44 24 12 69 46
101 76 33 33 63 53 71 50 10 -4 16 -33 21 -99 14 -192 49 -473 60 -484 8 -9
39 -8 119 2 59 7 112 16 117 19 13 8 13 67 1 153 -22 152 -22 168 -8 152 8 -8
33 -46 56 -84 l43 -69 -25 -66 c-47 -121 -77 -224 -83 -287 -6 -56 -4 -69 25
-130 17 -37 47 -92 66 -124 33 -55 34 -58 25 -116 -6 -32 -10 -86 -11 -119 -1
-100 19 -94 -249 -64 -129 14 -269 31 -310 37 -41 6 -250 14 -465 17 -247 3
-438 10 -520 19 -71 9 -145 16 -163 16 -41 0 -76 -33 -91 -85 -11 -42 0 -99
66 -343 35 -132 35 -134 24 -225 -8 -58 -18 -98 -29 -110 -9 -11 -55 -42 -102
-69 -47 -28 -125 -78 -175 -111 l-90 -62 -223 -11 c-197 -9 -226 -13 -250 -31
-15 -11 -43 -27 -62 -36 -39 -19 -98 -94 -147 -188 -28 -53 -33 -72 -33 -133
0 -39 6 -82 13 -96 13 -24 15 -25 101 -21 l89 3 -24 -39 c-13 -22 -46 -73 -73
-115 -47 -73 -50 -75 -99 -84 -42 -7 -56 -15 -74 -43 -13 -19 -23 -50 -23 -70
-1 -20 -9 -61 -20 -91 -11 -30 -19 -76 -20 -102 0 -42 4 -50 37 -77 69 -57 96
-61 376 -54 l253 6 0 -134 c1 -104 6 -152 22 -213 29 -105 80 -208 140 -282
l50 -61 -227 -6 c-296 -7 -386 -24 -368 -72 25 -63 547 -156 1087 -195 80 -5
208 -14 285 -20 77 -5 230 -15 340 -20 513 -26 841 -49 985 -70 36 -5 69 -10
73 -10 5 0 5 -5 2 -10 -3 -6 -21 -10 -38 -10 -42 0 -66 -15 -50 -31 33 -33
343 -59 708 -59 233 0 257 21 81 70 -86 25 -114 42 -53 35 121 -16 332 -28
442 -26 72 1 188 -2 260 -8 71 -6 239 -14 372 -17 221 -5 244 -4 250 11 3 10
0 21 -8 26 -19 12 -20 12 311 -8 227 -13 301 -14 365 -5 72 10 87 10 144 -8
170 -54 457 -47 629 14 177 63 321 204 395 386 45 111 59 185 59 315 1 165
-30 288 -112 443 l-38 72 25 6 c14 4 75 4 136 0 65 -4 118 -2 126 3 22 14 26
118 7 183 -21 74 -98 187 -185 275 -67 67 -71 74 -71 116 0 82 -10 108 -47
123 -71 30 -472 92 -620 96 -78 2 -93 -1 -120 -20 -39 -28 -108 -30 -121 -4
-15 28 -25 92 -27 167 -1 89 -28 167 -69 208 -18 18 -52 65 -75 104 l-43 72
22 36 c13 21 30 35 41 35 11 0 35 7 54 14 l35 15 0 87 c0 76 3 91 22 111 20
22 21 27 10 85 -22 117 -29 130 -121 229 -49 54 -100 119 -113 145 -26 51 -57
107 -79 142 -11 17 -8 42 19 159 44 195 55 279 48 364 -10 111 -10 115 3 243
14 151 18 166 47 176 27 11 31 9 248 -79 82 -34 159 -61 171 -61 12 0 80 35
152 78 103 61 140 89 175 132 76 95 88 116 88 157 0 21 9 56 20 78 23 44 25
66 9 82 -8 8 -7 16 2 31 9 15 10 31 3 59 -9 35 -5 49 51 178 61 139 104 253
124 330 8 31 8 44 -4 62 -8 12 -12 29 -9 37 8 20 -44 113 -75 135 -15 10 -43
24 -64 32 -22 8 -43 23 -49 34 -17 33 -115 151 -174 210 l-55 56 -67 -2 c-60
-1 -74 2 -132 34 -82 46 -192 87 -228 86 -15 0 -81 -19 -147 -43z m-3436
-1324 c19 -9 36 -22 38 -29 4 -12 -132 -61 -143 -51 -14 15 -23 83 -11 90 21
13 81 9 116 -10z m689 -46 c21 -13 13 -23 -28 -40 -60 -24 -89 -21 -100 10 -6
14 -10 29 -10 34 0 18 107 15 138 -4z m-1060 -121 c2 -46 1 -48 -13 -31 -8 11
-26 32 -40 48 -14 15 -25 30 -25 34 0 3 17 4 38 2 l37 -3 3 -50z m1168 -130
c-14 -32 -18 -35 -31 -25 -24 20 -18 47 13 58 15 5 28 8 30 7 2 -2 -4 -20 -12
-40z m-1528 15 c48 -29 45 -68 -9 -106 -31 -21 -42 -25 -48 -15 -11 17 -23
120 -16 132 10 15 37 10 73 -11z m-750 -34 c15 -8 35 -23 46 -34 18 -21 18
-21 -15 -41 -57 -35 -63 -31 -73 42 -8 52 -3 56 42 33z m415 -283 c-2 -65 -6
-228 -9 -363 -8 -289 4 -294 -128 53 l-87 228 45 50 c24 27 57 69 73 94 26 42
40 50 88 54 19 1 20 -4 18 -116z m3756 -1025 c70 -219 69 -217 57 -226 -6 -5
-32 -19 -58 -32 -26 -13 -50 -32 -54 -42 -3 -10 -26 -32 -52 -50 -72 -50 -122
-98 -145 -142 -56 -106 6 -382 193 -860 37 -96 38 -101 23 -130 -38 -74 -113
-176 -178 -244 l-70 -72 -180 -30 c-99 -16 -193 -30 -208 -30 -34 0 -35 -3 35
156 46 104 56 120 115 171 35 31 71 70 79 85 20 39 20 131 1 215 -9 37 -21
151 -26 252 l-10 184 23 31 c30 40 43 83 51 173 4 49 15 91 36 133 21 43 29
75 29 113 0 28 3 96 7 151 l6 98 41 -5 c73 -10 96 14 163 166 46 105 48 108
64 88 9 -11 35 -80 58 -153z m-1272 -1513 c3 -36 -4 -84 -25 -170 -17 -66 -34
-136 -37 -155 -8 -34 -8 -35 -17 -10 -15 40 5 260 38 424 l6 29 15 -34 c8 -19
17 -56 20 -84z m1301 -743 c37 -57 111 -69 257 -42 61 11 115 20 120 20 6 0 9
-41 7 -109 -3 -88 1 -126 18 -193 27 -105 79 -210 141 -288 27 -33 43 -60 36
-60 -21 0 -154 29 -183 40 -15 6 -33 18 -39 27 -16 22 -149 32 -424 33 -212 0
-213 0 -232 24 -24 30 -53 41 -173 65 -75 15 -105 26 -125 45 -14 14 -44 32
-66 41 -22 9 -60 36 -85 60 -25 23 -55 46 -67 50 -38 11 -40 51 -6 99 22 32
28 47 21 60 -8 14 3 16 119 16 198 1 427 17 467 34 39 16 89 51 151 105 36 32
40 33 44 16 2 -11 10 -30 19 -43z m785 -95 c12 -167 86 -285 222 -349 64 -30
78 -33 166 -33 94 0 99 1 178 41 45 23 81 39 81 35 0 -10 -48 -53 -81 -73
-103 -64 -330 -63 -463 1 -110 54 -196 215 -199 377 l-2 69 27 -3 c14 -2 29 2
33 7 3 6 12 11 19 11 9 0 15 -25 19 -83z m-2281 4 c13 -13 -18 -157 -40 -186
-12 -15 -22 -37 -22 -49 0 -11 -12 -39 -25 -61 -15 -24 -25 -55 -25 -79 l0
-39 -232 7 c-377 10 -930 45 -944 59 -3 3 6 21 20 41 13 20 32 59 41 86 9 28
18 50 20 50 1 0 19 -7 38 -15 29 -12 86 -15 283 -15 l247 0 66 -49 c36 -27
104 -72 150 -100 101 -61 145 -66 207 -25 72 48 92 73 99 124 8 55 -1 77 -77
184 -26 38 -48 73 -48 78 0 10 231 0 242 -11z m-2124 -5 c15 -7 72 -28 126
-46 84 -28 104 -31 130 -22 38 13 136 27 136 19 0 -3 -21 -16 -47 -29 -96 -45
-325 -22 -372 38 -38 48 -25 67 27 40z"/>
<path d="M1828 5831 c-15 -5 -45 -20 -65 -33 -24 -14 -56 -24 -86 -25 -107 -4
-207 -117 -207 -235 0 -21 -10 -47 -25 -68 -50 -68 -55 -149 -13 -218 46 -75
107 -105 203 -101 28 1 76 -4 107 -11 74 -16 120 -7 167 36 21 19 47 34 57 34
34 0 121 58 144 95 18 28 21 45 16 76 -5 31 -1 50 21 92 66 130 10 275 -131
338 -54 23 -146 33 -188 20z"/>
<path d="M1320 5068 c-18 -13 -37 -30 -41 -38 -54 -106 -60 -139 -34 -174 8
-11 15 -34 15 -51 0 -19 8 -39 19 -49 41 -37 138 -28 162 15 5 11 25 26 45 34
44 18 79 89 69 141 -7 38 -39 74 -67 74 -10 0 -18 5 -18 10 0 6 -11 22 -25 35
-31 32 -81 33 -125 3z"/>
<path d="M6638 2703 c-40 -6 -34 -29 10 -37 57 -9 170 -7 177 3 14 24 -113 47
-187 34z"/>
<path d="M6061 2203 c-40 -27 -70 -28 -182 -7 -49 9 -118 14 -165 12 -69 -3
-87 -7 -121 -31 -49 -34 -115 -147 -85 -147 4 0 17 16 29 35 27 41 67 63 130
72 l48 6 -56 -55 c-70 -69 -102 -134 -107 -214 -16 -243 290 -366 477 -191 32
31 70 98 71 126 0 7 -21 -10 -46 -38 -47 -52 -89 -81 -119 -81 -13 0 -15 26
-15 204 l0 203 51 6 c63 8 115 44 124 88 4 17 5 32 3 33 -1 2 -18 -8 -37 -21z
m-311 -252 c0 -158 -2 -181 -18 -201 l-18 -23 -31 37 c-75 91 -69 228 13 325
20 22 40 41 45 41 5 0 9 -76 9 -179z m136 159 c12 0 14 -34 12 -217 l-3 -218
-45 2 c-25 1 -62 10 -82 19 l-37 17 39 31 c63 50 70 74 70 236 0 126 2 141 16
136 9 -3 22 -6 30 -6z"/>
<path d="M1960 2210 c-14 -4 -53 -21 -88 -39 -91 -46 -98 -62 -104 -234 -4
-101 -9 -151 -20 -172 -17 -33 -44 -59 -70 -68 -13 -5 -12 1 6 28 21 31 24 48
28 187 3 97 9 162 18 178 16 31 66 76 102 91 40 16 36 33 -4 23 -40 -9 -88 -9
-188 1 -68 7 -78 5 -102 -14 -27 -22 -56 -87 -43 -99 4 -4 10 -2 12 4 12 34
31 47 64 44 19 -2 59 -4 89 -4 l55 -1 -37 -38 c-24 -25 -40 -53 -45 -80 -8
-40 -11 -42 -50 -48 -49 -6 -68 -20 -82 -60 -11 -33 0 -39 25 -14 23 23 70 19
88 -7 25 -36 19 -54 -23 -70 -27 -11 -41 -24 -49 -47 -12 -33 -3 -41 18 -16
16 19 59 19 66 0 11 -27 -5 -61 -46 -101 -73 -69 -89 -134 -34 -134 25 0 32
22 15 49 -14 23 4 48 45 61 48 16 171 9 213 -13 44 -22 42 -22 97 13 47 29 72
39 152 60 l42 11 0 95 c0 52 4 103 9 113 8 15 1 22 -47 45 l-56 28 26 19 c15
11 36 27 48 37 l21 17 -56 75 c-69 92 -65 89 -95 80z m13 -104 c26 -35 49 -70
52 -77 4 -10 -16 -30 -55 -57 l-60 -43 0 51 c0 27 -4 50 -10 50 -6 0 -10 -61
-10 -163 l0 -163 -75 0 c-41 1 -75 2 -75 2 0 1 17 13 38 27 61 40 72 75 72
221 0 134 12 184 47 205 10 6 21 11 24 11 3 0 26 -29 52 -64z m12 -203 c48
-23 39 -37 -23 -41 -49 -3 -52 -2 -52 22 0 22 10 33 32 35 4 1 23 -7 43 -16z
m35 -85 l0 -33 -55 3 c-50 4 -55 6 -55 27 0 22 5 24 53 28 28 2 53 4 55 5 1 1
2 -13 2 -30z m-2 -84 c3 -28 -1 -33 -35 -47 -50 -20 -73 -8 -73 37 0 43 6 47
60 44 42 -3 45 -5 48 -34z"/>
<path d="M2251 2208 c-27 -14 -67 -75 -57 -85 3 -4 13 2 20 13 12 16 27 19
105 20 81 0 89 -2 77 -15 -23 -27 -47 -81 -54 -124 -7 -39 -10 -42 -47 -48
-25 -4 -47 -16 -62 -34 -27 -31 -24 -42 7 -25 58 31 110 -15 118 -105 6 -70
-4 -81 -79 -96 -66 -13 -102 -36 -124 -80 -18 -33 -7 -38 20 -9 23 26 66 26
141 -1 122 -43 187 -25 232 61 27 55 29 131 6 309 -15 113 -15 127 0 157 9 20
25 36 41 40 28 7 34 24 8 24 -29 0 -82 -37 -103 -72 -29 -48 -33 -119 -16
-253 23 -171 21 -210 -9 -240 -13 -14 -29 -25 -35 -25 -26 0 -100 53 -100 72
0 4 9 8 19 8 11 0 32 11 47 24 25 21 27 29 26 84 -1 34 -6 101 -12 150 -11
102 0 159 43 216 l25 32 -56 0 c-32 -1 -79 2 -107 7 -34 5 -58 3 -74 -5z"/>
<path d="M2875 2153 c-165 -133 -217 -202 -231 -304 -13 -96 46 -193 143 -235
63 -26 185 -15 267 25 115 56 188 171 170 267 -10 52 -66 111 -121 127 l-45
13 67 55 67 54 -38 3 c-52 3 -121 21 -164 42 l-35 17 -80 -64z m107 -41 l88
-27 -83 -65 c-45 -36 -85 -66 -89 -68 -5 -2 -8 39 -8 92 0 53 1 96 3 96 1 0
41 -13 89 -28z m-193 -358 l-11 -29 -25 50 c-20 42 -23 61 -20 122 3 59 9 80
33 115 l29 43 3 -136 c2 -86 -2 -147 -9 -165z m301 189 c16 -9 37 -31 47 -50
17 -32 17 -33 -2 -47 -23 -18 -117 -21 -146 -6 -15 8 -19 21 -19 59 0 26 3 51
7 54 13 13 85 7 113 -10z m-154 -301 c-12 -11 -75 11 -109 39 l-37 31 44 33
c51 40 56 50 56 115 0 39 4 52 23 65 l22 15 3 -146 c1 -81 0 -149 -2 -152z
m170 171 l46 15 -5 -35 c-4 -20 -8 -37 -9 -38 -2 -2 -22 2 -46 8 -30 8 -53 8
-82 0 l-40 -10 0 37 0 37 45 -15 c40 -13 50 -13 91 1z m0 -77 c19 -14 19 -15
-5 -40 -27 -29 -80 -56 -110 -56 -18 0 -21 6 -21 43 0 36 4 46 23 55 32 15 90
14 113 -2z"/>
<path d="M4010 2199 c-74 -26 -131 -67 -152 -109 -14 -28 -18 -61 -18 -165 0
-149 -12 -186 -69 -219 l-34 -20 27 46 c25 42 26 52 26 177 0 176 21 226 111
266 55 25 36 41 -29 25 -38 -10 -60 -10 -95 -2 -77 20 -140 16 -164 -10 -38
-42 -57 -98 -33 -98 6 0 10 6 10 14 0 29 38 44 83 34 23 -5 60 -8 82 -5 l40 4
-37 -37 c-24 -24 -41 -53 -49 -83 -11 -45 -13 -47 -48 -47 -40 0 -73 -26 -86
-67 -7 -26 6 -30 25 -8 13 16 57 20 76 7 12 -8 34 -46 34 -60 0 -5 -18 -16
-40 -25 -24 -9 -44 -26 -51 -41 -15 -31 -3 -48 15 -23 16 21 62 22 70 1 12
-30 6 -43 -55 -109 -47 -52 -59 -73 -57 -93 2 -21 8 -27 28 -27 26 0 26 2 15
47 -6 23 -2 30 27 48 47 29 161 28 230 -2 40 -17 54 -19 67 -10 38 27 111 61
163 77 l56 16 4 97 c2 53 8 105 12 114 6 13 -3 22 -43 43 -28 14 -51 27 -51
28 0 2 20 18 45 36 l45 32 -56 77 c-31 42 -59 80 -63 84 -3 4 -31 -2 -61 -13z
m44 -98 c26 -38 48 -73 49 -78 1 -8 -103 -92 -115 -93 -4 0 -9 24 -11 53 -2
28 -4 -23 -5 -114 l-2 -166 -74 1 -75 1 27 22 c15 12 29 22 32 23 3 0 14 15
25 33 16 27 20 58 25 185 5 153 5 154 33 178 15 13 31 24 35 24 4 0 29 -31 56
-69z m4 -197 c50 -24 41 -44 -18 -44 -54 0 -73 17 -50 45 16 19 29 19 68 -1z
m32 -89 c0 -24 -3 -25 -55 -25 -52 0 -55 1 -55 25 0 24 3 25 55 25 52 0 55 -1
55 -25z m0 -80 c0 -30 -4 -37 -36 -50 -48 -20 -74 -6 -74 40 0 38 8 43 68 44
42 1 42 1 42 -34z"/>
<path d="M5090 2144 c-177 -105 -174 -103 -191 -170 -31 -129 -9 -234 67 -307
53 -51 108 -70 186 -65 86 5 149 38 229 117 137 139 155 274 50 394 -33 37
-131 89 -186 100 -25 4 -52 -8 -155 -69z m80 -240 l0 -237 -34 6 c-35 6 -106
46 -106 60 0 5 14 20 30 34 54 45 60 68 60 228 l0 145 25 0 25 0 0 -236z m110
205 c48 -22 110 -75 110 -95 0 -20 -85 -48 -122 -40 -64 13 -78 30 -78 96 0
56 2 60 23 60 12 0 42 -10 67 -21z m-240 -172 c0 -112 -3 -147 -15 -163 -15
-19 -15 -19 -30 1 -26 33 -48 123 -41 167 10 59 54 138 78 138 4 0 8 -64 8
-143z m250 13 c14 0 44 9 67 19 36 17 42 17 47 4 7 -18 8 -108 1 -115 -3 -3
-26 6 -52 18 -56 29 -66 29 -120 4 l-43 -19 0 65 0 64 37 -20 c21 -11 49 -20
63 -20z m76 -104 c26 -21 27 -25 15 -53 -24 -58 -108 -123 -158 -123 l-33 0 0
78 c0 42 4 82 8 88 27 41 126 47 168 10z"/>
<path d="M6524 2197 c-124 -54 -134 -73 -134 -262 0 -150 -9 -187 -55 -223
-36 -28 -39 -24 -18 19 14 27 19 69 23 204 3 110 9 178 18 192 7 12 33 34 58
49 55 32 50 41 -11 24 -38 -11 -59 -11 -115 0 -57 11 -74 11 -101 0 -34 -14
-69 -62 -69 -95 0 -18 3 -16 23 9 23 28 24 28 99 21 l77 -7 -21 -22 c-24 -25
-37 -57 -47 -111 -6 -37 -9 -40 -46 -46 -40 -7 -75 -38 -75 -67 0 -13 2 -13
18 1 27 25 78 22 96 -5 23 -33 20 -55 -11 -70 -15 -7 -34 -26 -41 -41 -15 -31
-7 -53 9 -24 12 21 48 22 55 2 11 -27 -5 -59 -56 -114 -42 -44 -51 -59 -48
-85 2 -23 8 -31 23 -31 17 0 20 6 17 42 -3 38 0 43 27 58 49 25 110 28 181 10
36 -9 74 -18 85 -21 15 -3 29 9 58 50 43 64 48 86 11 57 -27 -22 -92 -27 -158
-12 l-30 6 35 29 c19 16 52 37 74 47 39 18 127 25 159 13 26 -10 18 -58 -18
-110 -78 -110 -90 -134 -80 -163 8 -21 16 -26 44 -26 28 0 35 4 35 20 0 14 -8
21 -27 23 -16 2 -28 9 -28 17 0 7 31 38 69 69 104 85 106 90 106 231 0 134
-12 167 -78 218 l-33 25 -70 -59 c-38 -32 -72 -59 -76 -59 -13 0 -9 109 6 144
10 23 27 39 60 55 26 12 44 26 41 31 -3 6 -7 10 -8 10 -1 -1 -25 -11 -53 -23z
m93 -199 c45 -47 46 -70 3 -85 -50 -18 -157 2 -148 27 3 9 100 89 109 90 3 0
19 -15 36 -32z m-52 -112 c11 0 37 3 58 7 l37 8 0 -43 0 -43 -95 0 -95 -1 0
44 0 43 38 -8 c20 -4 46 -7 57 -7z"/>
<path d="M7043 2153 l-83 -66 0 -122 c0 -105 -3 -126 -19 -146 l-19 -23 -22
43 c-16 32 -22 63 -23 110 -1 80 22 129 83 185 23 21 40 40 37 43 -9 9 -68
-28 -107 -67 -114 -114 -120 -291 -15 -408 87 -96 208 -124 323 -73 46 21 142
108 142 130 0 4 -30 -7 -67 -25 -38 -18 -89 -36 -115 -40 l-48 -6 0 131 0 131
73 0 72 0 23 40 23 40 -40 0 c-22 0 -42 4 -45 8 -3 5 19 33 49 62 30 30 55 60
55 67 0 8 -14 13 -40 13 -22 0 -63 9 -92 20 -29 11 -55 20 -58 20 -3 0 -42
-30 -87 -67z m47 -233 l0 -230 -27 6 c-42 10 -75 29 -102 58 l-24 25 49 44 49
45 3 123 c3 95 7 128 19 142 9 9 20 17 25 17 4 0 8 -104 8 -230z m98 193 c23
-8 42 -16 42 -17 0 -1 -27 -28 -60 -61 l-60 -59 0 83 c0 75 2 82 18 76 9 -4
36 -14 60 -22z"/>
<path d="M8203 2187 c-63 -55 -92 -90 -110 -137 -10 -25 -32 -59 -50 -76 -26
-24 -33 -40 -33 -68 0 -63 50 -96 146 -96 58 0 62 -4 38 -38 -13 -18 -22 -21
-48 -16 -48 8 -99 -9 -152 -52 -44 -36 -47 -37 -60 -19 -7 10 -24 50 -36 89
-17 55 -33 82 -70 120 -26 27 -44 52 -40 55 5 3 32 21 60 40 29 18 52 37 52
41 0 12 -123 179 -132 180 -3 0 -39 -23 -80 -50 l-73 -51 -17 40 c-21 49 -42
61 -112 61 -48 0 -60 -4 -88 -30 l-33 -30 30 7 c17 4 41 7 55 6 34 -2 70 -46
70 -87 0 -30 -7 -38 -75 -85 -41 -29 -75 -56 -75 -60 0 -5 12 -14 28 -20 63
-27 122 -99 122 -149 0 -35 -2 -38 -48 -54 -45 -16 -138 -85 -128 -95 3 -3 29
3 58 13 75 25 179 23 247 -6 l52 -23 50 49 c27 27 45 50 39 52 -6 2 -19 -3
-30 -13 -17 -15 -21 -15 -49 0 l-31 16 0 89 c0 101 5 107 64 70 37 -22 70 -77
93 -152 17 -59 48 -108 67 -108 7 0 27 16 46 35 32 33 35 34 42 16 21 -58 123
-70 228 -28 l61 25 46 -20 46 -20 46 22 c73 35 137 87 170 137 25 38 31 57 31
101 0 51 -3 58 -39 92 -42 40 -100 60 -175 60 l-45 0 50 86 c47 82 59 127 19
75 l-18 -24 -86 31 -86 31 -37 -32z m-452 -90 c20 -29 43 -64 53 -78 l16 -26
-70 -47 -70 -46 0 113 c0 104 7 138 30 137 3 -1 21 -24 41 -53z m575 16 c21
-9 41 -19 43 -20 9 -6 -23 -65 -40 -73 -29 -16 -142 -12 -167 6 -32 22 -29 67
6 94 22 18 36 21 73 17 25 -3 63 -14 85 -24z m-676 -208 c0 -107 -2 -195 -4
-195 -2 0 -11 3 -20 6 -14 5 -16 31 -16 183 0 171 5 201 32 201 4 0 8 -88 8
-195z m-130 50 c0 -61 -3 -62 -60 -15 -21 17 -23 22 -10 29 8 5 24 17 35 25
31 24 35 20 35 -39z m621 -16 c19 -5 60 -7 93 -3 l58 6 -18 -31 c-18 -30 -20
-31 -90 -31 -57 0 -77 4 -98 21 -28 22 -33 48 -14 67 10 10 15 9 24 -3 7 -9
27 -20 45 -26z m323 0 c55 -15 96 -61 96 -107 0 -43 -37 -109 -79 -140 -28
-20 -34 -21 -57 -9 l-26 14 50 35 c120 87 71 175 -90 161 -38 -3 -68 -2 -68 3
1 14 23 40 40 47 25 9 93 8 134 -4z m-30 -141 c8 -14 5 -23 -19 -48 -15 -16
-37 -32 -46 -35 -19 -6 -137 22 -152 35 -17 15 23 59 56 63 73 10 150 2 161
-15z m-219 -129 l40 -12 -34 -14 c-56 -23 -135 -35 -165 -24 -30 12 -35 44 -8
61 20 12 108 7 167 -11z"/>
<path d="M4280 2180 c-39 -33 -39 -34 8 -21 64 19 112 -19 112 -88 0 -24 -12
-36 -75 -80 -41 -29 -75 -56 -75 -60 0 -5 13 -14 29 -21 30 -12 85 -61 107
-95 7 -11 14 -35 16 -54 3 -32 1 -35 -49 -54 -50 -18 -139 -84 -129 -94 3 -3
29 3 58 13 75 25 179 23 247 -6 l52 -23 49 48 c52 51 59 69 15 41 -23 -15 -28
-15 -55 -1 -30 15 -30 16 -30 105 0 101 5 107 64 70 36 -22 70 -77 91 -147 18
-59 50 -113 68 -113 7 0 33 20 57 45 27 27 38 45 29 45 -8 0 -20 -5 -27 -12
-17 -17 -36 12 -63 97 -17 52 -34 81 -71 119 -26 27 -47 50 -45 52 1 1 28 18
60 38 31 20 57 41 57 47 0 12 -122 178 -132 179 -3 0 -39 -23 -80 -50 l-73
-51 -17 40 c-21 49 -42 61 -110 61 -45 0 -59 -5 -88 -30z m351 -83 c20 -29 43
-64 53 -78 l16 -26 -70 -47 -70 -46 0 113 c0 104 7 138 30 137 3 -1 21 -24 41
-53z m-91 -192 c0 -112 -4 -195 -9 -195 -40 0 -41 7 -41 189 0 178 4 201 37
201 10 0 13 -42 13 -195z m-140 50 l0 -55 -40 26 c-22 15 -40 29 -40 33 0 7
61 49 73 50 4 1 7 -24 7 -54z"/>
</g>
</svg>
